<svg xmlns="http://www.w3.org/2000/svg" viewBox="0 0 64 64">
  <defs><linearGradient id="s" x1="8" y1="8" x2="56" y2="56"><stop stop-color="#b8aaff"/><stop offset=".5" stop-color="#7c5cff"/><stop offset=".78" stop-color="#25d0f5"/><stop offset="1" stop-color="#ff77b2"/></linearGradient></defs>
  <rect width="64" height="64" rx="15" fill="#101426"/>
  <circle cx="32" cy="32" r="25" fill="none" stroke="#7c5cff" stroke-opacity=".18" stroke-width="2"/>
  <path d="M32 7a25 25 0 1 1-17.7 7.3" fill="none" stroke="url(#s)" stroke-width="2.5" stroke-linecap="round"/>
  <g transform="translate(12 3) scale(.37)" fill="none" stroke="#f7f8ff" stroke-width="3" stroke-linecap="round" stroke-linejoin="round"><path d="M51.75 10.25c.11 1-.06 2.67-.71 4.02-4.47 9.23-17.06 25.98-38.79 38.48"/><path d="M53.5 15c7.12 7 22.89 20.46 30.6 26.65 2.82 2.26 5.65 4.22 9.15 5.72"/><path d="M38.25 40.64c1.76.72 3.84.36 5.65.14 5.4-.66 13.08-1.76 18.48-2.24 1.88-.17 3.54-.23 5.37.21"/><path d="M21.2 54.29c1.01 1.01 1.59 2.26 1.67 3.43.9 3.88 1.77 10.12 2.4 15.89.16 1.43.3 2.79.42 4.04"/><path d="M23.92 56.51c10.83-1.76 15.42-2.18 20.28-2.65 1.78-.17 2.79 1.16 2.49 2.28-1.23 4.63-1.67 9.73-3.48 16.13"/><path d="M26.02 75.17c4.77-.44 9.31-1.17 15.25-1.89 1.17-.14 2.39-.28 3.68-.42"/><path d="M54 54c.61.15 3 1 4.21.87 3.29-.37 17.99-4.02 19.51-4.17 1.52-.15 4.28-.29 3.95 2.89-.43 4.17-2.68 16.92-6 23.84-1.89 3.94-3.18 3.45-6.23.46"/><path d="M57.38 55.38c.87.87 1.8 2 1.8 3.5 0 7.36-.04 24.53-.1 34.13-.02 3.3-.05 5.71-.08 6.51"/></g>
  <path d="M7 35h10l4-8 6 17 7-27 6 18h17" fill="none" stroke="url(#s)" stroke-width="3" stroke-linecap="round" stroke-linejoin="round"/>
  <circle cx="51.5" cy="12.5" r="2" fill="#ff77b2"/>
</svg>
