<svg xmlns="http://www.w3.org/2000/svg" viewBox="0 0 1460 400">
  <defs><linearGradient id="s" x1="25" y1="20" x2="370" y2="370" gradientUnits="userSpaceOnUse"><stop stop-color="#b8aaff"/><stop offset=".55" stop-color="#7c5cff"/><stop offset=".8" stop-color="#25d0f5"/><stop offset="1" stop-color="#ff77b2"/></linearGradient></defs>
  <rect x="20" y="20" width="360" height="360" rx="88" fill="#101426" stroke="#354066" stroke-width="8"/>
  <path d="M200 48a152 152 0 1 1-108 45" fill="none" stroke="url(#s)" stroke-width="16" stroke-linecap="round"/>
  <g transform="translate(116 74) scale(1.55)" fill="none" stroke="#f7f8ff" stroke-width="3" stroke-linecap="round" stroke-linejoin="round"><path d="M51.75 10.25c.11 1-.06 2.67-.71 4.02-4.47 9.23-17.06 25.98-38.79 38.48"/><path d="M53.5 15c7.12 7 22.89 20.46 30.6 26.65 2.82 2.26 5.65 4.22 9.15 5.72"/><path d="M38.25 40.64c1.76.72 3.84.36 5.65.14 5.4-.66 13.08-1.76 18.48-2.24 1.88-.17 3.54-.23 5.37.21"/><path d="M21.2 54.29c1.01 1.01 1.59 2.26 1.67 3.43.9 3.88 1.77 10.12 2.4 15.89.16 1.43.3 2.79.42 4.04"/><path d="M23.92 56.51c10.83-1.76 15.42-2.18 20.28-2.65 1.78-.17 2.79 1.16 2.49 2.28-1.23 4.63-1.67 9.73-3.48 16.13"/><path d="M26.02 75.17c4.77-.44 9.31-1.17 15.25-1.89 1.17-.14 2.39-.28 3.68-.42"/><path d="M54 54c.61.15 3 1 4.21.87 3.29-.37 17.99-4.02 19.51-4.17 1.52-.15 4.28-.29 3.95 2.89-.43 4.17-2.68 16.92-6 23.84-1.89 3.94-3.18 3.45-6.23.46"/><path d="M57.38 55.38c.87.87 1.8 2 1.8 3.5 0 7.36-.04 24.53-.1 34.13-.02 3.3-.05 5.71-.08 6.51"/></g>
  <path d="M49 218h62l23-44 36 96 38-150 35 98h108" fill="none" stroke="url(#s)" stroke-width="18" stroke-linecap="round" stroke-linejoin="round"/>
  <text x="440" y="262" fill="#f7f8ff" font-family="Inter,ui-sans-serif,system-ui,sans-serif" font-size="208" font-weight="720" letter-spacing="-10">Inochi</text>
  <text x="452" y="325" fill="#9da5c2" font-family="ui-monospace,monospace" font-size="30" font-weight="600" letter-spacing="8">LEVELING WITH A PULSE</text>
</svg>
