<svg xmlns="http://www.w3.org/2000/svg" viewBox="0 0 1024 1024">
  <defs>
    <radialGradient id="bg" cx="30%" cy="20%" r="100%"><stop stop-color="#252b5e"/><stop offset=".55" stop-color="#11162e"/><stop offset="1" stop-color="#080a18"/></radialGradient>
    <linearGradient id="spectrum" x1="140" y1="140" x2="890" y2="890" gradientUnits="userSpaceOnUse"><stop stop-color="#b8aaff"/><stop offset=".42" stop-color="#7c5cff"/><stop offset=".72" stop-color="#25d0f5"/><stop offset="1" stop-color="#ff77b2"/></linearGradient>
    <filter id="glow"><feGaussianBlur stdDeviation="18" result="b"/><feMerge><feMergeNode in="b"/><feMergeNode in="SourceGraphic"/></feMerge></filter>
  </defs>
  <rect width="1024" height="1024" rx="244" fill="url(#bg)"/>
  <circle cx="512" cy="512" r="384" fill="none" stroke="#7c5cff" stroke-opacity=".15" stroke-width="26"/>
  <path d="M512 128a384 384 0 1 1-272 112" fill="none" stroke="url(#spectrum)" stroke-width="38" stroke-linecap="round"/>
  <g transform="translate(335 178) scale(3.25)" fill="none" stroke="#f7f8ff" stroke-width="3" stroke-linecap="round" stroke-linejoin="round">
    <path d="M51.75 10.25c.11 1-.06 2.67-.71 4.02-4.47 9.23-17.06 25.98-38.79 38.48"/><path d="M53.5 15c7.12 7 22.89 20.46 30.6 26.65 2.82 2.26 5.65 4.22 9.15 5.72"/><path d="M38.25 40.64c1.76.72 3.84.36 5.65.14 5.4-.66 13.08-1.76 18.48-2.24 1.88-.17 3.54-.23 5.37.21"/><path d="M21.2 54.29c1.01 1.01 1.59 2.26 1.67 3.43.9 3.88 1.77 10.12 2.4 15.89.16 1.43.3 2.79.42 4.04"/><path d="M23.92 56.51c10.83-1.76 15.42-2.18 20.28-2.65 1.78-.17 2.79 1.16 2.49 2.28-1.23 4.63-1.67 9.73-3.48 16.13"/><path d="M26.02 75.17c4.77-.44 9.31-1.17 15.25-1.89 1.17-.14 2.39-.28 3.68-.42"/><path d="M54 54c.61.15 3 1 4.21.87 3.29-.37 17.99-4.02 19.51-4.17 1.52-.15 4.28-.29 3.95 2.89-.43 4.17-2.68 16.92-6 23.84-1.89 3.94-3.18 3.45-6.23.46"/><path d="M57.38 55.38c.87.87 1.8 2 1.8 3.5 0 7.36-.04 24.53-.1 34.13-.02 3.3-.05 5.71-.08 6.51"/>
  </g>
  <path d="M128 558h150l58-112 88 244 98-384 86 252h288" fill="none" stroke="url(#spectrum)" stroke-width="44" stroke-linecap="round" stroke-linejoin="round" filter="url(#glow)"/>
  <circle cx="808" cy="198" r="31" fill="#ff77b2"/><circle cx="870" cy="274" r="15" fill="#25d0f5"/>
</svg>
